#!OML:ASF I:\Actors\actors\Patient Classification 2\Patient 1\Session 1\actor1.ASF
:FULLY-SPECIFIED
:DEGREES
676
root -0.611934 18.2284 4.95415 -0.618986 -0.684313 -5.10251
lowerback 10.457 2.00497 6.16053
upperback 1.77563 3.57762 5.2382
thorax -3.97034 1.71635 1.52521
lowerneck -0.714687 -1.18504 4.15195
upperneck 9.15746 -3.10664 16.6778
head 3.05364 -0.802038 4.30837
rclavicle -7.55382e-015 9.54166e-015
rhumerus -15.2792 17.7608 -59.5301
rradius 142.315
rwrist -44.9502
rhand 24.8135 -28.7327
rfingers 7.12502
rthumb 48.9898 -50.4701
lclavicle -7.55382e-015 9.54166e-015
lhumerus -51.3985 -21.8775 106.359
lradius 85.5155
lwrist 21.0992
lhand -6.86585 -11.7811
lfingers 7.12502
lthumb 18.9998 17.3109
rfemur 0 0 0
rtibia 0
rfoot 0 0
rtoes 0
lfemur 15.6049 -4.82643 -12.7115
ltibia -19.9212
lfoot 0.120087 19.1516
ltoes -8.19262
677
root -0.6101 18.2275 4.95677 -0.651303 -0.563545 -5.10266
lowerback 10.4757 1.88504 6.20846
upperback 1.87773 3.41653 5.22744
thorax -3.87221 1.6392 1.50973
lowerneck -0.399431 -0.817671 4.76406
upperneck 8.54947 -2.44124 15.9608
head 2.76189 -0.541196 4.0002
rclavicle 1.66979e-014 4.77083e-014
rhumerus -14.2786 15.8696 -58.5278
rradius 142.497
rwrist -42.3575
rhand 21.1979 -29.9979
rfingers 7.12502
rthumb 45.6493 -53.237
lclavicle 1.66979e-014 4.77083e-014
lhumerus -51.5673 -21.4417 106.229
lradius 85.7646
lwrist 21.1541
lhand -7.14961 -11.9705
lfingers 7.12502
lthumb 18.7269 17.148
rfemur 0 0 0
rtibia 0
rfoot 0 0
rtoes 0
lfemur 15.6459 -4.86868 -12.7255
ltibia -19.9739
lfoot 0.144657 19.0806
ltoes -8.21144
678
root -0.608705 18.2278 4.9578 -0.660233 -0.522125 -5.08477
lowerback 10.5164 1.68836 6.30034
upperback 1.95877 3.15826 5.12871
thorax -3.8028 1.51197 1.38933
lowerneck 0.0543226 -0.506673 5.81452
upperneck 7.80146 -1.79736 14.7011
head 2.65806 -0.32436 3.85556
rclavicle -4.7112e-014 -7.15625e-014
rhumerus -12.5801 14.4581 -57.8397
rradius 142.488
rwrist -39.3269
rhand 17.915 -31.1297
rfingers 7.12502
rthumb 42.5881 -55.5196
lclavicle -4.7112e-014 -7.15625e-014
lhumerus -51.9064 -20.7767 105.876
lradius 86.0124
lwrist 21.1422
lhand -7.45567 -12.2293
lfingers 7.12502
lthumb 18.4325 16.9174
rfemur 0 0 0
rtibia 0
rfoot 0 0
rtoes 0
lfemur 15.6463 -4.7722 -12.7466
ltibia -19.9752
lfoot 0.234476 18.9128
ltoes -8.58313
679
root -0.610223 18.2291 4.9541 -0.662414 -0.595376 -5.09656
lowerback 10.6211 1.44894 6.43662
upperback 2.00318 2.85545 4.9785
thorax -3.80503 1.35985 1.194
lowerneck 0.282794 -0.252664 6.53487
upperneck 7.76278 -1.4128 14.2695
head 2.56609 -0.138776 3.57185
rclavicle 1.47101e-014 1.11319e-014
rhumerus -10.4364 14.3003 -57.6176
rradius 142.286
rwrist -37.1692
rhand 13.5425 -32.1856
rfingers 7.12502
rthumb 38.478 -57.8531
lclavicle 1.47101e-014 1.11319e-014
lhumerus -52.3504 -19.9197 105.364
lradius 86.1775
lwrist 21.0248
lhand -7.70022 -12.3346
lfingers 7.12502
lthumb 18.1973 16.8342
rfemur 0 0 0
rtibia 0
rfoot 0 0
rtoes 0
lfemur 15.6167 -4.5746 -12.7109
ltibia -19.9159
lfoot 0.313012 18.7546
ltoes -8.90355
680
root -0.614798 18.2312 4.94834 -0.660304 -0.844878 -5.04408
lowerback 10.7541 1.22209 6.4255
upperback 2.01597 2.55798 4.81656
thorax -3.86499 1.21046 1.06705
lowerneck 0.499568 -0.0419724 7.14682
upperneck 7.99177 -1.13296 13.9716
head 2.58174 0.0152372 3.36414
rclavicle 4.17448e-015 -4.29375e-014
rhumerus -7.86307 14.8299 -57.407
rradius 141.826
rwrist -35.5248
rhand 9.75172 -32.529
rfingers 7.12502
rthumb 34.8908 -59.1105
lclavicle 4.17448e-015 -4.29375e-014
lhumerus -52.7912 -19.0216 104.806
lradius 86.1955
lwrist 20.9267
lhand -7.85234 -12.2019
lfingers 7.12502
lthumb 18.0509 16.9804
rfemur 0 0 0
rtibia 0
rfoot 0 0
rtoes 0
lfemur 15.6028 -4.30969 -12.7323
ltibia -19.8261
lfoot 0.278294 18.7222
ltoes -8.99168
681
root -0.617612 18.2322 4.94813 -0.642564 -1.30963 -4.95572
lowerback 10.8247 1.08257 6.35253
upperback 2.03088 2.36313 4.67045
thorax -3.8899 1.11348 0.979413
lowerneck 0.733991 0.114733 7.67154
upperneck 8.22589 -0.916024 13.6147
head 2.60102 0.134609 3.15183
rclavicle 1.5704e-014 2.38542e-014
rhumerus -5.36828 15.9211 -56.7647
rradius 141.51
rwrist -34.656
rhand 10.0729 -33.4809
rfingers 7.12502
rthumb 35.1955 -59.9911
lclavicle 1.5704e-014 2.38542e-014
lhumerus -53.2118 -18.4106 104.361
lradius 86.0574
lwrist 21.0426
lhand -8.0202 -11.9942
lfingers 7.12502
lthumb 17.8894 17.203
rfemur 0 0 0
rtibia 0
rfoot 0 0
rtoes 0
lfemur 15.6483 -4.16321 -12.8249
ltibia -19.7089
lfoot 0.024673 19.0047
ltoes -8.58566
682
root -0.639448 18.2236 4.96752 -0.81161 -1.41898 -4.88102
lowerback 10.7404 0.933979 6.0658
upperback 2.16907 2.11229 4.61148
thorax -3.71295 0.998126 1.11367
lowerneck 0.797589 0.171736 7.97195
upperneck 8.40931 -0.84715 13.3412
head 2.64402 0.180133 3.00782
rclavicle 1.27222e-014 -1.90833e-014
rhumerus -3.3145 17.3979 -55.6576
rradius 141.434
rwrist -34.2187
rhand 10.0478 -34.3133
rfingers 7.12502
rthumb 35.1717 -60.8291
lclavicle 1.27222e-014 -1.90833e-014
lhumerus -53.5534 -18.3105 104.072
lradius 85.8339
lwrist 21.3053
lhand -8.06751 -11.7651
lfingers 7.12502
lthumb 17.8439 17.4363
rfemur 0 0 0
rtibia 0
rfoot 0 0
rtoes 0
lfemur 15.9092 -3.87411 -12.7935
ltibia -19.5851
lfoot -0.107601 18.7587
ltoes -8.55206
683
root -0.644536 18.2197 4.97826 -0.832115 -1.77057 -4.75128
lowerback 10.6321 0.919979 5.97143
upperback 2.30813 2.05669 4.49448
thorax -3.50713 0.976834 1.05401
lowerneck 0.709364 0.191356 8.11013
upperneck 8.51058 -0.83464 13.0944
head 2.68994 0.193661 2.90053
rclavicle -2.34566e-014 -1.19271e-014
rhumerus -1.71211 18.9953 -54.2083
rradius 141.555
rwrist -34.1261
rhand 10.3663 -35.1122
rfingers 7.12502
rthumb 35.4737 -61.5563
lclavicle -2.34566e-014 -1.19271e-014
lhumerus -53.6887 -18.5824 103.861
lradius 85.5991
lwrist 21.4801
lhand -7.70181 -11.4257
lfingers 7.12502
lthumb 18.1957 17.7433
rfemur 0 0 0
rtibia 0
rfoot 0 0
rtoes 0
lfemur 16.0336 -3.64731 -12.9137
ltibia -19.4894
lfoot -0.255643 18.8337
ltoes -8.70421
684
root -0.642381 18.2188 4.98525 -0.760479 -2.1361 -4.69748
lowerback 10.4706 0.947223 6.03488
upperback 2.42279 2.07139 4.40613
thorax -3.29133 0.988976 0.928357
lowerneck 0.643228 0.2419 8.07609
upperneck 8.51582 -0.764895 12.9185
head 2.69851 0.224272 2.84672
rclavicle -1.66979e-014 -3.02153e-014
rhumerus -0.534789 20.083 -52.5052
rradius 141.824
rwrist -34.4999
rhand 10.8636 -35.8707
rfingers 7.12502
rthumb 35.945 -62.2007
lclavicle -1.66979e-014 -3.02153e-014
lhumerus -53.5737 -18.9041 103.757
lradius 85.2662
lwrist 21.1578
lhand -7.25996 -11.2712
lfingers 7.12502
lthumb 18.6208 17.8576
rfemur 0 0 0
rtibia 0
rfoot 0 0
rtoes 0
lfemur 16.0647 -3.46428 -12.9761
ltibia -19.4414
lfoot -0.432696 18.9994
ltoes -8.52364
685
root -0.64102 18.2189 4.99247 -0.653237 -2.3196 -4.71367
lowerback 10.3051 0.983968 6.16687
upperback 2.49071 2.1091 4.31123
thorax -3.11886 1.01102 0.755044
lowerneck 0.574561 0.295091 8.02333
upperneck 8.44531 -0.685772 12.8288
head 2.68284 0.256365 2.82481
rclavicle -1.37161e-014 4.92986e-014
rhumerus -0.0278735 20.237 -50.9671
rradius 142.307
rwrist -35.446
rhand 11.862 -36.7667
rfingers 7.12502
rthumb 36.8902 -62.8595
lclavicle -1.37161e-014 4.92986e-014
lhumerus -53.301 -19.3141 103.739
lradius 84.8585
lwrist 20.4541
lhand -7.11579 -11.529
lfingers 7.12502
lthumb 18.7595 17.5864
rfemur 0 0 0
rtibia 0
rfoot 0 0
rtoes 0
lfemur 16.0217 -3.35596 -12.9469
ltibia -19.4221
lfoot -0.594381 19.0749
ltoes -8.01146
686
root -0.640841 18.2198 4.9982 -0.56862 -2.28115 -4.68455
lowerback 10.2265 0.988131 6.24107
upperback 2.50963 2.10875 4.18631
thorax -3.04783 1.01209 0.585365
lowerneck 0.466284 0.350909 7.85019
upperneck 8.36611 -0.614877 12.8921
head 2.67444 0.285912 2.87745
rclavicle 1.53064e-014 2.78299e-014
rhumerus -0.0815799 18.9311 -49.8877
rradius 142.534
rwrist -36.0048
rhand 12.6892 -36.9194
rfingers 7.12502
rthumb 37.6723 -62.8071
lclavicle 1.53064e-014 2.78299e-014
lhumerus -53.1122 -19.8809 103.754
lradius 84.642
lwrist 20.1194
lhand -6.95913 -11.8562
lfingers 7.12502
lthumb 18.9101 17.2446
rfemur 0 0 0
rtibia 0
rfoot 0 0
rtoes 0
lfemur 15.9476 -3.30179 -12.9663
ltibia -19.4426
lfoot -0.587778 18.9986
ltoes -8.00235
687
root -0.635117 18.224 4.99817 -0.403201 -2.23826 -4.69042
lowerback 10.2044 0.977538 6.35224
upperback 2.47635 2.10356 4.10655
thorax -3.06322 1.00789 0.441251
lowerneck 0.37097 0.404237 7.49002
upperneck 8.2387 -0.535065 12.9609
head 2.64688 0.310478 2.96361
rclavicle -1.59028e-015 2.46493e-014
rhumerus -0.488532 16.9934 -49.2664
rradius 142.736
rwrist -37.0024
rhand 13.4054 -36.7498
rfingers 7.12502
rthumb 38.3487 -62.4533
lclavicle -1.59028e-015 2.46493e-014
lhumerus -53.0551 -20.2905 103.827
lradius 84.6941
lwrist 20.126
lhand -6.79784 -12.0862
lfingers 7.12502
lthumb 19.0652 16.9994
rfemur 0 0 0
rtibia 0
rfoot 0 0
rtoes 0
lfemur 15.7709 -3.39282 -12.9924
ltibia -19.5079
lfoot -0.500255 19.0884
ltoes -8.02402
688
root -0.616717 18.2338 4.98865 -0.05945 -2.46232 -4.83442
lowerback 10.2057 1.01603 6.70178
upperback 2.40483 2.19345 4.05157
thorax -3.11937 1.04721 0.178272
lowerneck 0.205535 0.461072 7.25236
upperneck 8.10898 -0.447035 12.8189
head 2.62765 0.339691 2.95549
rclavicle -1.49089e-014 -5.1684e-014
rhumerus -0.89365 14.6677 -49.1089
rradius 142.782
rwrist -37.6888
rhand 13.0285 -36.5401
rfingers 7.12502
rthumb 37.9928 -62.3413
lclavicle -1.49089e-014 -5.1684e-014
lhumerus -52.9935 -20.3873 103.884
lradius 84.9066
lwrist 20.1969
lhand -6.99402 -12.3195
lfingers 7.12502
lthumb 18.8766 16.7846
rfemur 0 0 0
rtibia 0
rfoot 0 0
rtoes 0
lfemur 15.4211 -3.68641 -12.95
ltibia -19.5781
lfoot -0.533652 19.6631
ltoes -7.67053
689
root -0.619022 18.236 4.99043 0.02305 -2.29262 -5.0178
lowerback 10.2433 0.861386 6.83078
upperback 2.40269 2.00616 4.05023
thorax -3.1459 0.952861 0.127596
lowerneck 0.0580079 0.554151 7.29951
upperneck 8.12672 -0.324566 12.5169
head 2.65208 0.399205 2.84616
rclavicle -2.00773e-014 3.18055e-014
rhumerus -0.899628 12.6767 -49.5445
rradius 142.451
rwrist -37.4971
rhand 11.6541 -36.1459
rfingers 7.12502
rthumb 36.6935 -62.289
lclavicle -2.00773e-014 3.18055e-014
lhumerus -52.9968 -20.0862 103.782
lradius 85.1739
lwrist 20.3104
lhand -7.44002 -12.5833
lfingers 7.12502
lthumb 18.4476 16.5619
rfemur 0 0 0
rtibia 0
rfoot 0 0
rtoes 0
lfemur 15.3256 -3.76279 -12.7346
ltibia -19.6538
lfoot -0.428953 19.6129
ltoes -7.87343
690
root -0.622481 18.2391 4.99043 0.079608 -2.15721 -5.08957
lowerback 10.3551 0.609511 6.83393
upperback 2.34529 1.68635 3.98363
thorax -3.28045 0.790046 0.0939023
lowerneck 0.121208 0.64391 7.69747
upperneck 8.25546 -0.183009 11.9043
head 2.67191 0.469782 2.56999
rclavicle -1.47101e-014 -3.02153e-014
rhumerus -0.347758 11.7313 -50.4652
rradius 141.721
rwrist -36.3613
rhand 10.8296 -35.5243
rfingers 7.12502
rthumb 35.9128 -61.8622
lclavicle -1.47101e-014 -3.02153e-014
lhumerus -53.1707 -19.3088 103.506
lradius 85.3865
lwrist 20.3978
lhand -7.89288 -12.8556
lfingers 7.12502
lthumb 18.0119 16.3303
rfemur 0 0 0
rtibia 0
rfoot 0 0
rtoes 0
lfemur 15.2481 -3.85931 -12.6421
ltibia -19.7103
lfoot -0.370458 19.5967
ltoes -7.94337
